<svg xmlns="http://www.w3.org/2000/svg" viewBox="0 0 32 32">
  <rect width="32" height="32" rx="6" fill="#6366f1"/>
  <path d="M16 8C11.58 8 8 11.58 8 16s3.58 8 8 8 8-3.58 8-8-3.58-8-8-8zm0 14c-3.31 0-6-2.69-6-6s2.69-6 6-6 6 2.69 6 6-2.69 6-6 6z" fill="#fff"/>
  <circle cx="16" cy="16" r="3" fill="#fff"/>
  <path d="M16 5v3M16 24v3M27 16h-3M8 16H5M23.07 8.93l-2.12 2.12M11.05 20.95l-2.12 2.12M23.07 23.07l-2.12-2.12M11.05 11.05L8.93 8.93" stroke="#fff" stroke-width="1.5" stroke-linecap="round"/>
</svg> 